<svg viewBox="0 0 100 100" xmlns="http://www.w3.org/2000/svg">
    <!-- Background -->
    <rect width="100" height="100" fill="#ffffff"/>

    <!-- Icon -->
    <g transform="translate(50, 50)">
        <!-- Outer circle with gradient -->
        <circle cx="0" cy="0" r="45" fill="url(#gradient1)" stroke="url(#gradient2)" stroke-width="3"/>

        <!-- Inner tech pattern -->
        <g>
            <!-- Code brackets -->
            <path d="M-20 -12 L-28 0 L-20 12" stroke="#ffffff" stroke-width="4" fill="none" stroke-linecap="round"/>
            <path d="M20 -12 L28 0 L20 12" stroke="#ffffff" stroke-width="4" fill="none" stroke-linecap="round"/>

            <!-- Circuit pattern -->
            <circle cx="0" cy="0" r="5" fill="#ffffff"/>
            <line x1="-15" y1="0" x2="15" y2="0" stroke="#ffffff" stroke-width="2.5"/>
            <line x1="0" y1="-15" x2="0" y2="15" stroke="#ffffff" stroke-width="2.5"/>
            <circle cx="-15" cy="0" r="2.5" fill="#ffffff"/>
            <circle cx="15" cy="0" r="2.5" fill="#ffffff"/>
            <circle cx="0" cy="-15" r="2.5" fill="#ffffff"/>
            <circle cx="0" cy="15" r="2.5" fill="#ffffff"/>

            <!-- Additional circuit nodes -->
            <circle cx="-10" cy="-10" r="1.5" fill="#ffffff" opacity="0.8"/>
            <circle cx="10" cy="-10" r="1.5" fill="#ffffff" opacity="0.8"/>
            <circle cx="-10" cy="10" r="1.5" fill="#ffffff" opacity="0.8"/>
            <circle cx="10" cy="10" r="1.5" fill="#ffffff" opacity="0.8"/>
        </g>
    </g>

    <!-- Gradients -->
    <defs>
        <linearGradient id="gradient1" x1="0%" y1="0%" x2="100%" y2="100%">
            <stop offset="0%" style="stop-color:#3b82f6;stop-opacity:1" />
            <stop offset="100%" style="stop-color:#8b5cf6;stop-opacity:1" />
        </linearGradient>

        <linearGradient id="gradient2" x1="0%" y1="0%" x2="100%" y2="100%">
            <stop offset="0%" style="stop-color:#1e40af;stop-opacity:1" />
            <stop offset="100%" style="stop-color:#7c3aed;stop-opacity:1" />
        </linearGradient>
    </defs>
</svg>